<svg width="256" height="256" viewBox="0 0 256 256" fill="none" xmlns="http://www.w3.org/2000/svg">
<g clip-path="url(#clip0_12309_4986)">
<path d="M37.6397 120.234C44.4006 110.062 55.9123 103.301 68.8859 103.301C69.1296 103.301 69.3732 103.301 69.6777 103.301C74.6723 103.423 79.4232 104.459 83.7477 106.347C88.864 86.4906 106.954 71.7507 128.394 71.7507H128.516C140.88 71.7507 152.453 76.6843 161.224 85.5161C167.071 91.4242 171.091 98.5506 173.101 106.286C177.608 104.398 182.542 103.301 187.78 103.301C188.146 103.301 188.511 103.301 188.876 103.301C198.805 103.606 208.063 107.687 215.006 114.874C216.651 116.58 218.113 118.407 219.392 120.356C223.046 119.564 225.787 116.336 225.787 112.438V82.7142C225.787 78.2679 222.194 74.6134 217.686 74.6134H207.21C204.591 74.6743 202.155 73.6388 200.327 71.8116C198.5 69.9843 197.465 67.6089 197.465 65.0507C197.465 62.4925 198.439 60.0562 200.205 58.2289L207.758 50.6762C209.22 49.1535 210.012 47.1435 210.012 45.0117C210.012 42.8798 209.159 40.8699 207.575 39.2862L186.501 18.2118C184.978 16.689 182.968 15.8363 180.836 15.8363C178.644 15.8363 176.634 16.689 175.111 18.2727L167.68 25.7035C165.853 27.5308 163.356 28.5054 160.797 28.5054C155.498 28.4444 151.235 24.059 151.296 18.7599V8.10088C151.296 3.65453 147.641 0 143.195 0H113.41C108.964 0 105.309 3.59362 105.309 8.10088V18.4554C105.309 21.0136 104.335 23.5108 102.569 25.3381C100.741 27.1654 98.3658 28.2008 95.8077 28.2008C93.2495 28.2008 90.874 27.2263 89.0468 25.399L81.555 17.9072C78.3877 14.8009 73.2714 14.8009 70.1041 17.9072L49.3951 39.1035C47.8724 40.6262 47.0196 42.6971 47.0196 44.8289C47.0196 46.9607 47.8724 48.9707 49.3951 50.5544L56.8869 57.9853C58.6532 59.8125 59.6887 62.3098 59.6278 64.868C59.6278 67.4261 58.5923 69.8625 56.7042 71.6288C54.8769 73.3952 52.5014 74.3697 49.9433 74.3697H39.1015C34.6551 74.3697 31.0615 78.0243 31.0615 82.4706V112.316C31.0615 116.275 33.9242 119.564 37.7006 120.234H37.6397Z" fill="url(#paint0_linear_12309_4986)"/>
<path d="M72.6008 179.864C68.2153 179.864 63.8299 179.864 59.5054 179.864C47.019 180.047 36.7254 187.234 32.6445 198.624C31.9745 200.452 31.5482 202.279 31 204.167V241.078C31 241.078 31.2436 241.382 31.2436 241.565C32.7054 249.97 38.9791 255.696 47.4454 255.879C55.4854 256.061 63.5253 255.879 71.6262 256C72.6008 256 72.7835 255.757 72.5399 254.843C71.8699 252.59 71.8089 250.214 71.8089 247.9C71.8089 230.419 71.8089 212.877 71.8089 195.396C71.8089 190.645 72.2353 185.894 73.8189 181.326C74.3062 179.986 73.8189 179.864 72.6617 179.864H72.6008Z" fill="url(#paint1_linear_12309_4986)"/>
<path d="M225.482 203.923C223.655 191.985 214.823 182.605 203.007 180.413C196.611 179.194 190.094 179.986 183.638 179.803C182.48 179.803 182.846 180.473 183.029 181.022C184.734 186.077 185.099 191.315 185.039 196.553C185.039 213.608 185.039 230.662 185.039 247.717C185.039 250.092 185.039 252.407 184.308 254.66C184.003 255.574 184.247 255.818 185.221 255.818C193.322 255.818 201.484 255.818 209.585 255.696C214.518 255.635 218.599 253.442 221.828 249.727C224.081 247.169 224.995 244.062 225.847 240.895V204.35C225.847 204.35 225.543 204.045 225.482 203.802V203.923Z" fill="url(#paint2_linear_12309_4986)"/>
<path d="M145.387 165.307C134.058 165.246 122.668 165.307 111.339 165.307C109.268 165.307 107.136 165.49 105.126 165.977C91.7262 169.205 83.138 180.108 83.0771 193.934C83.0771 212.39 83.0771 230.845 83.0771 249.3C83.0771 253.99 85.0871 256 89.7771 256C102.629 256 115.542 256 128.393 256C141.245 256 154.28 256 167.192 256C171.578 256 173.71 253.93 173.71 249.483C173.71 231.028 173.71 212.572 173.71 194.117C173.71 191.863 173.588 189.671 173.039 187.539C169.933 174.261 159.03 165.49 145.387 165.429V165.307Z" fill="url(#paint3_linear_12309_4986)"/>
<path d="M128.454 90.6937C109.877 90.6937 94.5889 105.738 94.528 124.255C94.467 142.893 109.816 158.363 128.393 158.303C146.971 158.303 162.137 143.075 162.259 124.376C162.38 105.982 147.092 90.6937 128.515 90.6328L128.454 90.6937Z" fill="url(#paint4_linear_12309_4986)"/>
<path d="M43.669 147.4C43.4863 161.165 54.8154 172.555 68.8244 172.799C82.468 173.043 93.9798 161.653 94.2234 147.644C94.467 133.939 83.3207 122.488 69.3726 122.184C55.3026 121.879 43.7909 133.147 43.6081 147.339L43.669 147.4Z" fill="url(#paint5_linear_12309_4986)"/>
<path d="M162.563 146.913C162.137 160.8 173.405 172.433 187.597 172.799C201.24 173.103 212.691 161.896 213.118 147.765C213.544 134.244 202.337 122.671 188.51 122.245C174.44 121.818 162.99 132.721 162.563 146.913Z" fill="url(#paint6_linear_12309_4986)"/>
</g>
<defs>
<linearGradient id="paint0_linear_12309_4986" x1="31.0615" y1="0" x2="138.715" y2="174.174" gradientUnits="userSpaceOnUse">
<stop stop-color="#D341F8"/>
<stop offset="1" stop-color="#575EF1" stop-opacity="0.81"/>
</linearGradient>
<linearGradient id="paint1_linear_12309_4986" x1="30.6072" y1="90.7624" x2="224.615" y2="256.655" gradientUnits="userSpaceOnUse">
<stop stop-color="#1154D8"/>
<stop offset="1" stop-color="#9685FE"/>
</linearGradient>
<linearGradient id="paint2_linear_12309_4986" x1="30.6072" y1="90.7624" x2="224.615" y2="256.655" gradientUnits="userSpaceOnUse">
<stop stop-color="#1154D8"/>
<stop offset="1" stop-color="#9685FE"/>
</linearGradient>
<linearGradient id="paint3_linear_12309_4986" x1="30.6072" y1="90.7624" x2="224.615" y2="256.655" gradientUnits="userSpaceOnUse">
<stop stop-color="#1154D8"/>
<stop offset="1" stop-color="#9685FE"/>
</linearGradient>
<linearGradient id="paint4_linear_12309_4986" x1="30.6072" y1="90.7624" x2="224.615" y2="256.655" gradientUnits="userSpaceOnUse">
<stop stop-color="#1154D8"/>
<stop offset="1" stop-color="#9685FE"/>
</linearGradient>
<linearGradient id="paint5_linear_12309_4986" x1="30.6072" y1="90.7624" x2="224.615" y2="256.655" gradientUnits="userSpaceOnUse">
<stop stop-color="#1154D8"/>
<stop offset="1" stop-color="#9685FE"/>
</linearGradient>
<linearGradient id="paint6_linear_12309_4986" x1="30.6072" y1="90.7624" x2="224.615" y2="256.655" gradientUnits="userSpaceOnUse">
<stop stop-color="#1154D8"/>
<stop offset="1" stop-color="#9685FE"/>
</linearGradient>
<clipPath id="clip0_12309_4986">
<rect width="256" height="256" fill="white"/>
</clipPath>
</defs>
</svg>
